# xmcd
#
# Track frame offsets: 
#        150
#        17097
#        32698
#        47570
#        64267
#        83164
#        98538
#        118717
#        143149
#        160867
#        171496
#        195006
#
# Disc length: 2893 seconds
#
# Revision: 0
# Processed by: cddbd v1.5.2PL0 Copyright (c) Steve Scherf et al.
# Submitted via: ExactAudioCopyFreeDBPlugin 1.0
#
DISCID=920b4b0c
DTITLE=The Hysterical Injury - Dead Wolf Situation
DYEAR=2012
DGENRE=Grunge
TTITLE0=Halo Alkanes
TTITLE1=Icebreak
TTITLE2=Cycle One
TTITLE3=Vex
TTITLE4=Rosetta's Waves
TTITLE5=The Works
TTITLE6=Visions Of Trees
TTITLE7=Into The Cabin
TTITLE8=Skyline Interface
TTITLE9=Maths
TTITLE10=Bitch's Balls
TTITLE11=Rainbow Thunderclap
EXTD=
EXTT0=
EXTT1=
EXTT2=
EXTT3=
EXTT4=
EXTT5=
EXTT6=
EXTT7=
EXTT8=
EXTT9=
EXTT10=
EXTT11=
PLAYORDER=
